<?xml version="1.0" standalone="no"?>
<!DOCTYPE svg PUBLIC "-//W3C//DTD SVG 20010904//EN"
 "http://www.w3.org/TR/2001/REC-SVG-20010904/DTD/svg10.dtd">
<svg version="1.0" xmlns="http://www.w3.org/2000/svg"
 width="512.000000pt" height="512.000000pt" viewBox="0 0 512.000000 512.000000"
 preserveAspectRatio="xMidYMid meet">
<metadata>
Created by potrace 1.11, written by Peter Selinger 2001-2013
</metadata>
<g transform="translate(0.000000,512.000000) scale(0.100000,-0.100000)"
fill="#000000" stroke="none">
<path d="M3460 5100 c-143 -30 -243 -77 -360 -166 -119 -90 -252 -249 -329
-394 -33 -63 -50 -83 -76 -94 -26 -11 -55 -48 -140 -177 -147 -225 -149 -229
-155 -229 -3 0 -23 48 -44 108 -50 136 -111 258 -134 267 -47 19 -70 16 -104
-14 -18 -16 -34 -39 -35 -52 -1 -12 21 -76 49 -143 72 -171 148 -401 148 -445
0 -21 -55 -12 -455 74 -109 23 -372 27 -480 6 -139 -27 -349 -121 -464 -209
-349 -265 -560 -652 -617 -1132 -10 -86 -11 -316 -1 -413 47 -467 319 -1088
670 -1527 87 -109 279 -297 375 -368 268 -198 492 -235 867 -142 149 36 178
40 290 40 60 0 126 -9 200 -26 61 -14 142 -32 180 -41 45 -10 124 -16 220 -17
131 -1 159 2 221 22 210 67 399 207 618 457 33 38 69 78 78 89 10 11 30 38 45
60 15 23 30 43 33 46 16 15 135 200 193 301 176 308 318 681 366 964 5 33 13
76 17 95 11 58 13 400 3 465 -5 33 -11 74 -14 90 -61 410 -279 791 -584 1020
-102 78 -295 176 -404 205 -179 49 -394 47 -642 -5 -66 -14 -133 -28 -149 -31
-16 -3 -32 -7 -36 -9 -3 -2 -29 -7 -56 -10 -27 -4 -76 -10 -108 -14 -33 -5
-85 -8 -115 -7 -55 1 -56 2 -59 31 -2 24 28 75 152 263 85 128 160 239 166
247 10 12 27 6 108 -35 54 -27 115 -60 137 -73 118 -69 268 -148 325 -171 194
-79 285 -100 440 -101 181 0 315 41 485 149 80 51 238 212 303 307 119 178
212 399 266 637 15 65 11 72 -27 48 -67 -45 -246 -58 -385 -29 -34 7 -77 15
-95 18 -18 4 -61 12 -97 20 -197 44 -319 58 -510 61 -159 2 -211 -1 -280 -16z"/>
</g>
</svg>
